<?xml version="1.0" encoding="iso-8859-1"?>
<!-- Generator: Adobe Illustrator 19.0.0, SVG Export Plug-In . SVG Version: 6.00 Build 0)  -->
<svg version="1.1" id="Layer_1" xmlns="http://www.w3.org/2000/svg" xmlns:xlink="http://www.w3.org/1999/xlink" x="0px" y="0px"
	 viewBox="0 0 469.333 469.333" style="enable-background:new 0 0 469.333 469.333;" xml:space="preserve">
<g>
	<g>
		<g>
			<path d="M298.667,202.667c-20.083,0-31.76,3.688-41.156,6.646c-7.125,2.25-12.76,4.021-21.062,4.021
				c-7.177,0-15.104-3.208-25.146-7.271c-15.479-6.26-34.75-14.063-61.969-14.063c-5.896,0-10.667,4.771-10.667,10.667
				s4.771,10.667,10.667,10.667c23.073,0,39.49,6.646,53.969,12.5c11.219,4.542,21.813,8.833,33.146,8.833
				c11.594,0,19.667-2.542,27.479-5.01c8.823-2.781,17.948-5.656,34.74-5.656c5.896,0,10.667-4.771,10.667-10.667
				C309.333,207.437,304.562,202.667,298.667,202.667z"/>
			<path d="M335.594,0c-36.47,0-82.88,13.452-125.056,35.97c-26.404-9.15-52.934-14.637-76.798-14.637C50,21.333,0,69.187,0,149.333
				c0,56.346,39.328,99.906,85.592,118.358l-0.259,158.902c-0.021,11.417,4.406,22.146,12.469,30.219
				c8.063,8.073,18.781,12.521,30.198,12.521h213.333c23.531,0,42.667-19.135,42.667-42.667V246.242
				c46.15-18.51,85.333-62.001,85.333-118.242C469.333,47.854,419.333,0,335.594,0z M362.667,426.667
				c0,11.76-9.573,21.333-21.333,21.333H128c-5.708,0-11.073-2.219-15.104-6.26c-4.021-4.031-6.24-9.396-6.229-15.104L106.736,384
				h255.931V426.667z M335.594,234.667c-5.896,0-10.667,4.771-10.667,10.667c0,5.896,4.771,10.667,10.667,10.667
				c8.957,0,18.047-1.163,27.073-3.186v109.853H106.771l0.145-88.458c8.944,1.987,17.949,3.125,26.824,3.125
				c5.896,0,10.667-4.771,10.667-10.667S139.635,256,133.74,256c-53.167,0-112.406-43.802-112.406-106.667
				c0-96.271,78.604-106.667,112.406-106.667c61.708,0,146.417,40.427,188.812,90.125c3.844,4.49,10.563,5,15.042,1.188
				c4.479-3.823,5.01-10.552,1.188-15.042c-24.858-29.133-62.069-54.646-101.676-72.383c34.367-15.915,69.966-25.221,98.488-25.221
				C369.396,21.333,448,31.729,448,128C448,190.865,388.76,234.667,335.594,234.667z"/>
		</g>
	</g>
</g>
<g>
</g>
<g>
</g>
<g>
</g>
<g>
</g>
<g>
</g>
<g>
</g>
<g>
</g>
<g>
</g>
<g>
</g>
<g>
</g>
<g>
</g>
<g>
</g>
<g>
</g>
<g>
</g>
<g>
</g>
</svg>
